<?xml version="1.0" encoding="utf-8"?>
<!-- Generator: Adobe Illustrator 16.0.0, SVG Export Plug-In . SVG Version: 6.00 Build 0)  -->
<!DOCTYPE svg PUBLIC "-//W3C//DTD SVG 1.1//EN" "http://www.w3.org/Graphics/SVG/1.1/DTD/svg11.dtd">
<svg version="1.1" id="Capa_1" xmlns="http://www.w3.org/2000/svg" xmlns:xlink="http://www.w3.org/1999/xlink" x="0px" y="0px"
	 width="19.115px" height="26.168px" viewBox="-32.38 -30.525 19.115 26.168" enable-background="new -32.38 -30.525 19.115 26.168"
	 xml:space="preserve">
<g>
	<path fill="#EA0B8C" d="M-22.822-30.525c-5.271,0-9.558,4.288-9.558,9.559c0,3.182,2.929,8.206,4.188,10.22
		c1.036,1.656,2.147,3.229,3.13,4.431c1.598,1.958,2.048,1.958,2.239,1.958c0.185,0,0.615,0,2.208-1.958
		c0.987-1.209,2.102-2.783,3.134-4.431c1.267-2.017,4.216-7.052,4.216-10.22C-13.265-26.238-17.553-30.525-22.822-30.525z
		 M-22.822-13.246c-4.169,0-7.562-3.393-7.562-7.563c0-4.169,3.393-7.561,7.562-7.561c4.17,0,7.562,3.392,7.562,7.561
		C-15.261-16.639-18.652-13.246-22.822-13.246z"/>
	<path fill="#EA0B8C" d="M-17.302-23.71c-0.051,0-0.107,0.008-0.159,0.023l-0.608,0.167l-0.628-1.536
		c-0.18-0.435-0.708-0.789-1.178-0.789h-5.9c-0.47,0-1,0.354-1.177,0.789l-0.63,1.534l-0.599-0.165
		c-0.053-0.015-0.107-0.023-0.159-0.023c-0.288,0-0.496,0.22-0.496,0.521v0.359c0,0.352,0.288,0.639,0.639,0.639h0.069l-0.101,0.248
		c-0.167,0.403-0.302,1.088-0.302,1.526v3.05c0,0.353,0.288,0.639,0.639,0.639h0.835c0.353,0,0.64-0.286,0.64-0.639v-0.761h7.183
		v0.761c0,0.353,0.287,0.639,0.639,0.639h0.836c0.353,0,0.639-0.286,0.639-0.639v-3.05c0-0.438-0.136-1.123-0.3-1.526l-0.102-0.248
		h0.076c0.353,0,0.639-0.288,0.639-0.639v-0.359C-16.807-23.49-17.017-23.71-17.302-23.71z M-27.125-22.539l0.954-2.323
		c0.107-0.26,0.425-0.473,0.705-0.473h5.278c0.282,0,0.601,0.212,0.706,0.473l0.953,2.323c0.107,0.262-0.036,0.475-0.316,0.475
		h-7.961C-27.088-22.064-27.231-22.277-27.125-22.539z M-24.995-19.6c0,0.141-0.115,0.256-0.256,0.256h-1.812
		c-0.14,0-0.255-0.115-0.255-0.256v-0.87c0-0.141,0.115-0.256,0.255-0.256h1.812c0.141,0,0.256,0.115,0.256,0.256V-19.6z
		 M-18.351-19.6c0,0.141-0.117,0.256-0.255,0.256h-1.814c-0.137,0-0.255-0.115-0.255-0.256v-0.87c0-0.141,0.118-0.256,0.255-0.256
		h1.814c0.139,0,0.255,0.115,0.255,0.256V-19.6z"/>
</g>
</svg>
