<?xml version="1.0" encoding="utf-8"?>
<!-- Generator: Adobe Illustrator 16.0.0, SVG Export Plug-In . SVG Version: 6.00 Build 0)  -->
<!DOCTYPE svg PUBLIC "-//W3C//DTD SVG 1.1//EN" "http://www.w3.org/Graphics/SVG/1.1/DTD/svg11.dtd">
<svg version="1.1" id="Layer_1" xmlns="http://www.w3.org/2000/svg" xmlns:xlink="http://www.w3.org/1999/xlink" x="0px" y="0px"
	 width="15px" height="15px" viewBox="1.187 0.158 19.813 19.813" enable-background="new 1.187 0.158 19.813 19.813"
	 xml:space="preserve">
<g>
	<path fill="#FFFFFF" d="M11.529,9.897l1.58-5.546c0.06-0.22-0.065-0.448-0.285-0.51c-0.219-0.063-0.445,0.064-0.511,0.283
		L10.664,9.92c-0.042,0.152,0.005,0.314,0.122,0.421l5.065,4.522c0.077,0.07,0.178,0.106,0.274,0.106
		c0.116,0,0.226-0.045,0.307-0.136c0.153-0.172,0.139-0.434-0.03-0.584L11.529,9.897z"/>
	<path fill="#FFFFFF" d="M20.799,7.925c-0.08-0.356-0.163-0.706-0.282-1.058c-0.483-1.418-1.288-2.7-2.399-3.81
		c-1.927-1.924-4.288-2.899-7.024-2.899c-2.731,0-5.084,0.976-6.992,2.899c-1.934,1.934-2.914,4.292-2.914,7.007
		s0.98,5.073,2.913,7.006c1.909,1.926,4.262,2.9,6.994,2.9c2.735,0,5.101-0.975,7.027-2.9c1.91-1.93,2.879-4.285,2.879-7.006
		C21,9.325,20.935,8.608,20.799,7.925z M17.533,16.487c-1.765,1.767-3.931,2.66-6.44,2.66c-2.504,0-4.658-0.894-6.407-2.66
		c-1.774-1.771-2.673-3.934-2.673-6.423c0-2.488,0.899-4.65,2.673-6.426c1.749-1.763,3.903-2.656,6.408-2.656
		c2.509,0,4.677,0.895,6.441,2.658c1.019,1.019,1.758,2.196,2.201,3.491c0.105,0.315,0.18,0.63,0.257,0.965
		c0.121,0.621,0.182,1.282,0.182,1.969C20.175,12.561,19.286,14.723,17.533,16.487z"/>
</g>
</svg>
