<svg xmlns="http://www.w3.org/2000/svg" xmlns:xlink="http://www.w3.org/1999/xlink" version="1.1" x="0px" y="0px" viewBox="0 0 100 125" enable-background="new 0 0 100 100" xml:space="preserve"><g><path d="M52.472,49.188l7.657-26.888c0.302-1.062-0.313-2.169-1.376-2.471c-1.066-0.305-2.169,0.313-2.472,1.375l-8,28.093   c-0.21,0.737,0.02,1.529,0.591,2.039l24.556,21.936c0.381,0.341,0.857,0.509,1.331,0.509c0.55,0,1.098-0.226,1.492-0.668   c0.736-0.823,0.665-2.088-0.159-2.823L52.472,49.188z"/><path d="M97.414,39.626c-0.395-1.727-0.795-3.417-1.366-5.126c-2.345-6.878-6.261-13.094-11.638-18.474   C75.082,6.7,63.625,1.971,50.357,1.971c-13.242,0-24.648,4.731-33.895,14.056C7.086,25.403,2.333,36.833,2.333,50   c0,13.168,4.754,24.598,14.124,33.965c9.253,9.334,20.659,14.066,33.901,14.066c13.267,0,24.725-4.73,34.059-14.066   C93.688,74.615,98.389,63.188,98.389,50C98.389,46.417,98.065,42.947,97.414,39.626z M81.582,81.143   c-8.552,8.553-19.057,12.889-31.225,12.889c-12.136,0-22.586-4.334-31.066-12.889C10.692,72.546,6.333,62.068,6.333,50   c0-12.067,4.36-22.546,12.964-31.151c8.474-8.545,18.924-12.878,31.061-12.878c12.168,0,22.674,4.335,31.225,12.884   c4.94,4.943,8.534,10.641,10.677,16.924c0.51,1.528,0.87,3.049,1.242,4.676c0.589,3.008,0.888,6.219,0.888,9.545   C94.389,62.095,90.078,72.575,81.582,81.143z"/></g><text x="0" y="115" fill="#000000" font-size="5px" font-weight="bold" font-family="'Helvetica Neue', Helvetica, Arial-Unicode, Arial, Sans-serif">Created by Jardson Almeida</text><text x="0" y="120" fill="#000000" font-size="5px" font-weight="bold" font-family="'Helvetica Neue', Helvetica, Arial-Unicode, Arial, Sans-serif">from the Noun Project</text></svg>