<?xml version="1.0" encoding="iso-8859-1"?>
<!-- Generator: Adobe Illustrator 19.1.0, SVG Export Plug-In . SVG Version: 6.00 Build 0)  -->
<svg xmlns="http://www.w3.org/2000/svg" xmlns:xlink="http://www.w3.org/1999/xlink" version="1.1" id="Capa_1" x="0px" y="0px" viewBox="0 0 490 490" style="enable-background:new 0 0 490 490;" xml:space="preserve" width="512px" height="512px">
<g>
	<g>
		<path d="M276,185.6c-8.8-4.9-18.1-8.5-27.3-12.3c-5.3-2.2-10.5-4.8-15-8.4c-8.9-7.1-7.2-18.6,3.2-23.2c2.9-1.3,6-1.7,9.2-1.9    c12.1-0.7,23.5,1.5,34.5,6.8c5.4,2.6,7.2,1.8,9.1-3.9c1.9-6,3.6-12.1,5.3-18.1c1.2-4.1-0.3-6.7-4.1-8.4c-7-3.1-14.2-5.3-21.7-6.5    c-9.9-1.5-9.9-1.6-9.9-11.5c-0.1-14-0.1-14-14.1-14c-2,0-4.1-0.1-6.1,0c-6.5,0.2-7.7,1.3-7.8,7.9c-0.1,3,0,5.9,0,8.9    c0,8.8-0.1,8.6-8.5,11.7c-20.3,7.4-32.8,21.2-34.2,43.3c-1.2,19.6,9,32.8,25.1,42.4c9.9,5.9,20.9,9.5,31.4,14.1    c4.1,1.8,8,3.9,11.4,6.7c10.1,8.3,8.2,22.2-3.7,27.4c-6.4,2.8-13.2,3.5-20.1,2.6c-10.7-1.3-21-4.2-30.7-9.2    c-5.7-2.9-7.3-2.2-9.2,4c-1.7,5.3-3.1,10.7-4.6,16c-2,7.2-1.3,8.9,5.6,12.2c8.7,4.2,18.1,6.4,27.6,7.9c7.5,1.2,7.7,1.5,7.8,9.3    c0,3.5,0.1,7,0.1,10.5c0.1,4.4,2.2,7,6.7,7.1c5.2,0.1,10.4,0.1,15.5,0c4.2-0.1,6.4-2.4,6.4-6.7c0-4.8,0.2-9.6,0-14.4    c-0.2-4.9,1.9-7.4,6.6-8.7c10.8-3,20.1-8.8,27.2-17.4C311.5,236.1,303.9,201,276,185.6z" fill="#15c271"/>
		<path d="M438.5,193.5C438.5,86.6,351.9,0,245,0S51.5,86.6,51.5,193.5c0,12.6,1.2,24.8,3.5,36.7l0,0c0,0,0.3,2.1,1.3,6    c3,13.4,7.4,26.2,13.1,38.4C89.5,322.4,136.8,403.1,245,490c108.2-86.9,155.5-167.6,175.7-215.3c5.6-12.2,10-25,13.1-38.4    c0.9-3.9,1.3-6,1.3-6l0,0C437.3,218.4,438.5,206.1,438.5,193.5z M245,337.3c-78.2,0-141.6-63.4-141.6-141.6S166.8,54.2,245,54.2    s141.6,63.4,141.6,141.6S323.2,337.3,245,337.3z" fill="#15c271"/>
	</g>
</g>
<g>
</g>
<g>
</g>
<g>
</g>
<g>
</g>
<g>
</g>
<g>
</g>
<g>
</g>
<g>
</g>
<g>
</g>
<g>
</g>
<g>
</g>
<g>
</g>
<g>
</g>
<g>
</g>
<g>
</g>
</svg>
