<?xml version="1.0" encoding="utf-8"?>
<!-- Generator: Adobe Illustrator 16.0.0, SVG Export Plug-In . SVG Version: 6.00 Build 0)  -->
<!DOCTYPE svg PUBLIC "-//W3C//DTD SVG 1.1//EN" "http://www.w3.org/Graphics/SVG/1.1/DTD/svg11.dtd">
<svg version="1.1" id="Capa_1" xmlns="http://www.w3.org/2000/svg" xmlns:xlink="http://www.w3.org/1999/xlink" x="0px" y="0px"
	 width="24.342px" height="24.342px" viewBox="9.141 -61.688 24.342 24.342" enable-background="new 9.141 -61.688 24.342 24.342"
	 xml:space="preserve">
<g>
	<g>
		<circle fill="#FFFFFF" cx="21.312" cy="-49.517" r="12.171"/>
		<path fill="#325461" d="M24.041-50.627c-0.831-0.464-1.71-0.804-2.578-1.161c-0.5-0.208-0.992-0.456-1.417-0.796
			c-0.843-0.67-0.679-1.757,0.301-2.189c0.273-0.124,0.568-0.164,0.868-0.18c1.144-0.065,2.219,0.141,3.26,0.643
			c0.511,0.246,0.68,0.17,0.859-0.368c0.178-0.568,0.34-1.144,0.499-1.71c0.113-0.386-0.027-0.632-0.387-0.792
			c-0.661-0.294-1.343-0.5-2.052-0.615c-0.934-0.141-0.934-0.15-0.934-1.085c-0.012-1.324-0.012-1.324-1.333-1.324
			c-0.189,0-0.387-0.009-0.577,0c-0.612,0.02-0.729,0.123-0.736,0.745c-0.011,0.283,0,0.557,0,0.843c0,0.83-0.011,0.811-0.804,1.104
			c-1.917,0.699-3.098,2.003-3.229,4.091c-0.113,1.851,0.852,3.096,2.37,4.002c0.936,0.558,1.974,0.898,2.965,1.333
			c0.39,0.168,0.756,0.366,1.078,0.632c0.956,0.784,0.771,2.097-0.352,2.588c-0.605,0.266-1.247,0.331-1.898,0.247
			c-1.012-0.125-1.984-0.397-2.9-0.869c-0.538-0.274-0.69-0.207-0.868,0.379c-0.163,0.5-0.293,1.01-0.436,1.511
			c-0.189,0.678-0.122,0.837,0.528,1.151c0.82,0.396,1.709,0.606,2.606,0.747c0.71,0.112,0.728,0.141,0.736,0.878
			c0,0.331,0.012,0.661,0.012,0.992c0.011,0.415,0.207,0.661,0.633,0.67c0.49,0.01,0.985,0.01,1.464,0
			c0.396-0.009,0.604-0.226,0.604-0.634c0-0.453,0.02-0.907,0-1.358c-0.021-0.466,0.181-0.702,0.625-0.822
			c1.02-0.286,1.896-0.832,2.567-1.646C27.394-45.857,26.677-49.173,24.041-50.627z"/>
	</g>
</g>
</svg>
