<?xml version="1.0" encoding="utf-8"?>
<!-- Generator: Adobe Illustrator 16.0.0, SVG Export Plug-In . SVG Version: 6.00 Build 0)  -->
<!DOCTYPE svg PUBLIC "-//W3C//DTD SVG 1.1//EN" "http://www.w3.org/Graphics/SVG/1.1/DTD/svg11.dtd">
<svg version="1.1" id="Capa_1" xmlns="http://www.w3.org/2000/svg" xmlns:xlink="http://www.w3.org/1999/xlink" x="0px" y="0px"
	 width="63.955px" height="39.018px" viewBox="-78.053 -3.703 63.955 39.018" enable-background="new -78.053 -3.703 63.955 39.018"
	 xml:space="preserve">
<g>
	<path fill="#325461" d="M-59.139-3.104L-59.139-3.104C-66.997-5.4-75.225-0.892-77.524,6.968l0,0
		c-2.068,7.08,2.137,15.975,8.854,19.024l18.629,9.323l2.17-20.716C-46.825,7.294-52.057-1.037-59.139-3.104z"/>
	<g>
		<circle fill="#FFFFFF" cx="-63.06" cy="11.14" r="12.171"/>
		<path fill="#325461" d="M-61.199,8.854c-0.951-0.007-1.886,0.116-2.819,0.221c-0.539,0.058-1.089,0.077-1.625-0.018
			c-1.062-0.183-1.44-1.215-0.789-2.064c0.181-0.24,0.42-0.417,0.675-0.575c0.972-0.606,2.014-0.942,3.168-1.002
			c0.565-0.03,0.678-0.178,0.577-0.735c-0.117-0.584-0.252-1.167-0.385-1.74c-0.085-0.393-0.327-0.541-0.719-0.509
			c-0.721,0.06-1.418,0.206-2.095,0.446c-0.887,0.325-0.891,0.318-1.34-0.503c-0.646-1.155-0.646-1.155-1.805-0.52
			c-0.167,0.09-0.344,0.177-0.507,0.277c-0.527,0.312-0.58,0.458-0.287,1.007c0.126,0.253,0.268,0.488,0.405,0.739
			c0.398,0.728,0.38,0.716-0.174,1.354c-1.346,1.535-1.754,3.246-0.867,5.14c0.79,1.678,2.234,2.306,4.001,2.371
			c1.088,0.04,2.162-0.161,3.241-0.256c0.422-0.04,0.839-0.042,1.249,0.037c1.215,0.228,1.684,1.468,0.935,2.438
			c-0.403,0.524-0.935,0.89-1.546,1.129c-0.948,0.376-1.932,0.604-2.961,0.632c-0.604,0.017-0.705,0.15-0.58,0.749
			c0.098,0.517,0.229,1.027,0.344,1.534c0.159,0.687,0.295,0.794,1.016,0.756c0.91-0.046,1.79-0.29,2.645-0.598
			c0.677-0.241,0.706-0.225,1.068,0.417c0.159,0.29,0.328,0.573,0.487,0.865c0.209,0.357,0.499,0.479,0.877,0.283
			c0.435-0.227,0.869-0.465,1.284-0.704c0.342-0.198,0.421-0.489,0.225-0.847c-0.217-0.397-0.418-0.805-0.652-1.19
			c-0.242-0.4-0.179-0.703,0.153-1.021c0.756-0.74,1.263-1.642,1.46-2.678C-55.968,11.427-58.189,8.863-61.199,8.854z"/>
	</g>
</g>
<g>
	<path fill="#279A80" d="M-14.628,6.974L-14.628,6.974C-16.924-0.881-25.15-5.393-33.009-3.104l0,0
		c-7.083,2.067-12.317,10.395-11.277,17.698l2.163,20.717l18.634-9.313C-16.769,22.952-12.561,14.058-14.628,6.974z M-31.016,15.359
		c-2.369-1.299-3.234-4.274-1.938-6.641c1.301-2.372,4.273-3.237,6.642-1.938c2.372,1.3,3.237,4.275,1.938,6.645
		C-25.669,15.792-28.645,16.659-31.016,15.359z"/>
	<g>
		<circle fill="#E27B0C" cx="-28.884" cy="11.178" r="11.892"/>
		<path fill="#FFFFFF" d="M-22.678,13.349l-4.736-2.598l2.599-4.738c0.287-0.524,0.094-1.181-0.432-1.469
			c-0.523-0.288-1.182-0.098-1.471,0.426l-3.116,5.685c-0.287,0.525-0.094,1.18,0.431,1.468l5.685,3.116
			c0.527,0.29,1.182,0.101,1.471-0.425C-21.963,14.293-22.156,13.635-22.678,13.349z"/>
	</g>
</g>
</svg>
