<?xml version="1.0" encoding="utf-8"?>
<!-- Generator: Adobe Illustrator 16.0.0, SVG Export Plug-In . SVG Version: 6.00 Build 0)  -->
<!DOCTYPE svg PUBLIC "-//W3C//DTD SVG 1.1//EN" "http://www.w3.org/Graphics/SVG/1.1/DTD/svg11.dtd">
<svg version="1.1" id="Capa_1" xmlns="http://www.w3.org/2000/svg" xmlns:xlink="http://www.w3.org/1999/xlink" x="0px" y="0px"
	 width="22.533px" height="32.232px" viewBox="6.292 -64.467 22.533 32.232" enable-background="new 6.292 -64.467 22.533 32.232"
	 xml:space="preserve">
<g>
	<path fill="#0DD354" d="M25.522-61.167L25.522-61.167c-4.398-4.399-11.53-4.399-15.932,0l0,0c-3.964,3.964-4.41,11.43-1.047,15.915
		l9.014,13.018l9.012-13.017C29.935-49.738,29.489-57.203,25.522-61.167z"/>
	<g>
		<circle fill="#FFFFFF" cx="17.707" cy="-53.104" r="9.251"/>
		<path fill="#0DD354" d="M19.782-53.948c-0.633-0.353-1.301-0.61-1.961-0.882c-0.379-0.157-0.754-0.347-1.076-0.604
			c-0.641-0.509-0.516-1.335,0.229-1.664c0.209-0.094,0.434-0.125,0.66-0.137c0.869-0.05,1.688,0.106,2.479,0.488
			c0.389,0.188,0.517,0.129,0.652-0.279c0.135-0.433,0.26-0.869,0.379-1.301c0.088-0.293-0.021-0.479-0.293-0.602
			c-0.502-0.223-1.021-0.38-1.56-0.467c-0.71-0.107-0.71-0.114-0.71-0.824c-0.01-1.007-0.01-1.007-1.014-1.007
			c-0.145,0-0.295-0.006-0.438,0c-0.465,0.015-0.555,0.094-0.56,0.565c-0.008,0.216,0,0.424,0,0.642c0,0.631-0.008,0.616-0.61,0.839
			c-1.458,0.532-2.354,1.522-2.455,3.11c-0.086,1.406,0.647,2.353,1.802,3.042c0.711,0.424,1.5,0.683,2.254,1.013
			c0.297,0.128,0.574,0.278,0.818,0.479c0.729,0.597,0.587,1.595-0.268,1.968c-0.459,0.201-0.947,0.252-1.442,0.188
			c-0.769-0.095-1.508-0.302-2.204-0.66c-0.408-0.209-0.525-0.158-0.66,0.288c-0.123,0.38-0.223,0.769-0.33,1.148
			c-0.145,0.516-0.094,0.637,0.401,0.875c0.624,0.301,1.299,0.461,1.981,0.566c0.539,0.085,0.553,0.107,0.56,0.668
			c0,0.251,0.009,0.502,0.009,0.753c0.01,0.315,0.157,0.503,0.481,0.51c0.372,0.008,0.749,0.008,1.112,0
			c0.301-0.007,0.459-0.171,0.459-0.481c0-0.345,0.016-0.689,0-1.032c-0.016-0.354,0.138-0.533,0.476-0.625
			c0.774-0.217,1.44-0.632,1.95-1.251C22.33-50.322,21.785-52.843,19.782-53.948z"/>
	</g>
</g>
</svg>
