<?xml version="1.0" encoding="utf-8"?>
<!-- Generator: Adobe Illustrator 16.0.0, SVG Export Plug-In . SVG Version: 6.00 Build 0)  -->
<!DOCTYPE svg PUBLIC "-//W3C//DTD SVG 1.1//EN" "http://www.w3.org/Graphics/SVG/1.1/DTD/svg11.dtd">
<svg version="1.1" id="Capa_1" xmlns="http://www.w3.org/2000/svg" xmlns:xlink="http://www.w3.org/1999/xlink" x="0px" y="0px"
	 width="39.373px" height="56.319px" viewBox="6.291 -64.465 39.373 56.319" enable-background="new 6.291 -64.465 39.373 56.319"
	 xml:space="preserve">
<path fill="#38C16F" d="M39.896-58.7L39.896-58.7c-7.688-7.687-20.15-7.687-27.841,0l0,0c-6.927,6.927-7.705,19.97-1.828,27.808
	l15.75,22.746L41.725-30.89C47.604-38.73,46.825-51.773,39.896-58.7z"/>
<g>
	<g>
		<path fill="#FFFFFF" d="M29.865-46.086c-1.104-0.616-2.271-1.067-3.425-1.542c-0.664-0.276-1.317-0.604-1.88-1.055
			c-1.119-0.89-0.902-2.334,0.401-2.91c0.363-0.164,0.754-0.215,1.153-0.239c1.519-0.087,2.948,0.189,4.33,0.854
			c0.677,0.326,0.903,0.225,1.14-0.49c0.238-0.753,0.451-1.518,0.663-2.271c0.152-0.513-0.037-0.84-0.512-1.053
			c-0.879-0.389-1.784-0.664-2.724-0.816c-1.241-0.187-1.241-0.199-1.241-1.443c-0.015-1.756-0.015-1.756-1.771-1.756
			c-0.251,0-0.512-0.012-0.765,0c-0.814,0.026-0.968,0.163-0.978,0.989c-0.015,0.376,0,0.739,0,1.119
			c0,1.103-0.015,1.077-1.067,1.466c-2.547,0.928-4.116,2.66-4.291,5.432c-0.15,2.458,1.131,4.114,3.149,5.317
			c1.241,0.741,2.62,1.193,3.937,1.77c0.516,0.224,1.004,0.487,1.432,0.84c1.268,1.041,1.025,2.784-0.467,3.437
			c-0.803,0.352-1.657,0.439-2.521,0.328c-1.343-0.165-2.636-0.528-3.853-1.154c-0.714-0.365-0.917-0.276-1.153,0.503
			c-0.216,0.664-0.389,1.341-0.579,2.007c-0.251,0.902-0.162,1.114,0.703,1.531c1.09,0.526,2.27,0.803,3.461,0.991
			c0.943,0.149,0.967,0.186,0.979,1.166c0,0.439,0.013,0.878,0.013,1.317c0.013,0.551,0.276,0.878,0.841,0.89
			c0.651,0.012,1.307,0.012,1.944,0c0.526-0.012,0.803-0.3,0.803-0.842c0-0.602,0.027-1.205,0-1.804
			c-0.027-0.618,0.24-0.93,0.83-1.091c1.354-0.379,2.521-1.105,3.411-2.185C34.318-39.752,33.365-44.155,29.865-46.086z"/>
	</g>
</g>
</svg>
