<?xml version="1.0" encoding="utf-8"?>
<!-- Generator: Adobe Illustrator 16.0.0, SVG Export Plug-In . SVG Version: 6.00 Build 0)  -->
<!DOCTYPE svg PUBLIC "-//W3C//DTD SVG 1.1//EN" "http://www.w3.org/Graphics/SVG/1.1/DTD/svg11.dtd">
<svg version="1.1" id="Capa_1" xmlns="http://www.w3.org/2000/svg" xmlns:xlink="http://www.w3.org/1999/xlink" x="0px" y="0px"
	 width="35px" height="70px" viewBox="0 0 512 512" enable-background="new 0 0 512 512" xml:space="preserve">
<path fill="#38C16F" d="M371.951,69.47L371.951,69.47c-64.033-64.034-167.861-64.034-231.905,0l0,0
	c-57.7,57.701-64.188,166.347-15.228,231.633l131.18,189.451L387.18,301.104C436.146,235.817,429.652,127.171,371.951,69.47z"/>
<g>
	<g>
		<path fill="#FFFFFF" d="M288.385,174.534c-9.195-5.12-18.912-8.882-28.525-12.852c-5.539-2.299-10.973-5.016-15.674-8.777
			c-9.299-7.419-7.523-19.435,3.344-24.242c3.029-1.358,6.27-1.776,9.613-1.985c12.643-0.731,24.555,1.567,36.049,7.105
			c5.643,2.717,7.523,1.881,9.508-4.075c1.986-6.27,3.762-12.643,5.539-18.913c1.254-4.284-0.314-7.001-4.285-8.777
			c-7.314-3.239-14.838-5.538-22.674-6.792c-10.346-1.567-10.346-1.672-10.346-12.017c-0.104-14.628-0.104-14.628-14.732-14.628
			c-2.09,0-4.283-0.104-6.373,0c-6.793,0.209-8.047,1.358-8.15,8.255c-0.105,3.135,0,6.165,0,9.299
			c0,9.195-0.105,8.986-8.881,12.225c-21.213,7.732-34.273,22.152-35.736,45.244c-1.254,20.48,9.404,34.273,26.227,44.303
			c10.346,6.166,21.838,9.927,32.811,14.733c4.283,1.881,8.359,4.076,11.912,7.001c10.553,8.673,8.566,23.198-3.867,28.632
			c-6.688,2.926-13.793,3.656-21.002,2.717c-11.18-1.359-21.943-4.389-32.078-9.613c-5.957-3.031-7.629-2.299-9.613,4.18
			c-1.777,5.537-3.24,11.18-4.807,16.719c-2.09,7.523-1.359,9.299,5.852,12.748c9.09,4.387,18.912,6.686,28.84,8.254
			c7.836,1.254,8.045,1.566,8.148,9.717c0,3.658,0.105,7.314,0.105,10.973c0.104,4.598,2.299,7.314,7,7.418
			c5.434,0.105,10.867,0.105,16.197,0c4.389-0.104,6.686-2.508,6.686-7c0-5.016,0.211-10.031,0-15.047
			c-0.209-5.121,1.986-7.732,6.896-9.092c11.285-3.135,21.004-9.193,28.422-18.18C325.479,227.302,317.537,190.625,288.385,174.534z
			"/>
	</g>
</g>
</svg>
