<?xml version="1.0" encoding="utf-8"?>
<!-- Generator: Adobe Illustrator 16.0.0, SVG Export Plug-In . SVG Version: 6.00 Build 0)  -->
<!DOCTYPE svg PUBLIC "-//W3C//DTD SVG 1.1//EN" "http://www.w3.org/Graphics/SVG/1.1/DTD/svg11.dtd">
<svg version="1.1" id="Capa_1" xmlns="http://www.w3.org/2000/svg" xmlns:xlink="http://www.w3.org/1999/xlink" x="0px" y="0px"
	 width="53.149px" height="24.342px" viewBox="-48.526 38.978 53.149 24.342" enable-background="new -48.526 38.978 53.149 24.342"
	 xml:space="preserve">
<g>
	<g>
		<circle fill="#E27B0C" cx="-7.268" cy="51.149" r="11.892"/>
		<path fill="#FFFFFF" d="M-0.782,50.069h-5.403v-5.403c0-0.6-0.486-1.082-1.084-1.082c-0.599,0-1.084,0.482-1.084,1.082v6.482
			c0,0.6,0.483,1.08,1.084,1.08h6.481c0.604,0,1.086-0.48,1.086-1.08C0.298,50.553-0.187,50.069-0.782,50.069z"/>
	</g>
</g>
<g>
	<g>
		<circle fill="#FFFFFF" cx="-36.855" cy="50.649" r="11.671"/>
		<path fill="#325461" d="M-34.238,49.584c-0.797-0.444-1.64-0.771-2.472-1.112c-0.479-0.201-0.95-0.438-1.358-0.765
			c-0.809-0.643-0.651-1.684,0.288-2.099c0.262-0.119,0.545-0.157,0.833-0.173c1.097-0.062,2.128,0.136,3.127,0.617
			c0.489,0.235,0.652,0.162,0.823-0.354c0.171-0.545,0.326-1.097,0.479-1.64c0.108-0.37-0.026-0.605-0.371-0.76
			c-0.634-0.281-1.289-0.479-1.968-0.59c-0.896-0.135-0.896-0.143-0.896-1.039c-0.011-1.27-0.011-1.27-1.278-1.27
			c-0.181,0-0.371-0.01-0.554,0c-0.586,0.019-0.699,0.117-0.706,0.713c-0.009,0.271,0,0.535,0,0.81c0,0.796-0.009,0.777-0.771,1.058
			c-1.838,0.671-2.971,1.922-3.096,3.924c-0.108,1.774,0.817,2.969,2.273,3.838c0.897,0.534,1.893,0.86,2.843,1.277
			c0.374,0.161,0.725,0.351,1.034,0.606c0.916,0.751,0.739,2.011-0.338,2.481c-0.58,0.255-1.196,0.316-1.819,0.236
			c-0.97-0.12-1.903-0.38-2.781-0.832c-0.516-0.264-0.661-0.199-0.833,0.363c-0.156,0.479-0.281,0.968-0.417,1.448
			c-0.182,0.65-0.117,0.804,0.506,1.104c0.786,0.379,1.639,0.581,2.499,0.716c0.681,0.106,0.699,0.135,0.706,0.842
			c0,0.317,0.011,0.634,0.011,0.951c0.01,0.398,0.199,0.635,0.607,0.642c0.47,0.011,0.945,0.011,1.404,0
			c0.38-0.007,0.58-0.215,0.58-0.606c0-0.435,0.019-0.871,0-1.303c-0.021-0.446,0.173-0.673,0.599-0.788
			c0.978-0.274,1.818-0.798,2.461-1.578C-31.023,54.159-31.71,50.98-34.238,49.584z"/>
	</g>
</g>
</svg>
