<?xml version="1.0" encoding="utf-8"?>
<!-- Generator: Adobe Illustrator 16.0.0, SVG Export Plug-In . SVG Version: 6.00 Build 0)  -->
<!DOCTYPE svg PUBLIC "-//W3C//DTD SVG 1.1//EN" "http://www.w3.org/Graphics/SVG/1.1/DTD/svg11.dtd">
<svg version="1.1" id="Capa_1" xmlns="http://www.w3.org/2000/svg" xmlns:xlink="http://www.w3.org/1999/xlink" x="0px" y="0px"
	 width="22.533px" height="32.232px" viewBox="6.291 -64.467 22.533 32.232" enable-background="new 6.291 -64.467 22.533 32.232"
	 xml:space="preserve">
<g>
	<path fill="#0DD354" d="M25.523-61.167L25.523-61.167c-4.399-4.4-11.531-4.4-15.932,0l0,0c-3.964,3.964-4.41,11.429-1.047,15.915
		l9.014,13.017l9.012-13.016C29.934-49.738,29.489-57.203,25.523-61.167z"/>
	<g>
		<circle fill="#FFFFFF" cx="17.707" cy="-53.104" r="9.251"/>
		<path fill="#0DD354" d="M19.782-53.948c-0.632-0.353-1.3-0.611-1.96-0.882c-0.38-0.158-0.754-0.347-1.077-0.605
			c-0.641-0.509-0.516-1.335,0.229-1.664c0.208-0.094,0.433-0.125,0.66-0.137c0.869-0.049,1.687,0.107,2.478,0.489
			c0.389,0.187,0.517,0.129,0.653-0.28c0.135-0.432,0.259-0.869,0.379-1.3c0.087-0.293-0.021-0.48-0.294-0.602
			c-0.502-0.223-1.021-0.38-1.559-0.467c-0.71-0.107-0.71-0.114-0.71-0.824c-0.009-1.007-0.009-1.007-1.014-1.007
			c-0.144,0-0.294-0.006-0.438,0c-0.465,0.015-0.555,0.094-0.56,0.566c-0.008,0.215,0,0.423,0,0.641c0,0.631-0.008,0.616-0.61,0.839
			c-1.458,0.532-2.355,1.523-2.455,3.11c-0.086,1.407,0.647,2.353,1.802,3.042c0.711,0.424,1.5,0.683,2.253,1.013
			c0.297,0.128,0.575,0.278,0.819,0.48c0.728,0.596,0.587,1.594-0.267,1.967c-0.46,0.202-0.948,0.252-1.443,0.188
			c-0.769-0.095-1.508-0.302-2.204-0.66c-0.409-0.209-0.525-0.158-0.66,0.288c-0.124,0.38-0.223,0.768-0.331,1.148
			c-0.144,0.516-0.093,0.637,0.402,0.875c0.624,0.301,1.299,0.461,1.981,0.567c0.54,0.085,0.553,0.107,0.56,0.668
			c0,0.251,0.009,0.502,0.009,0.753c0.009,0.315,0.157,0.503,0.481,0.509c0.372,0.008,0.749,0.008,1.112,0
			c0.301-0.006,0.46-0.171,0.46-0.481c0-0.345,0.015-0.69,0-1.032c-0.016-0.354,0.137-0.534,0.475-0.625
			c0.774-0.217,1.441-0.632,1.951-1.251C22.33-50.322,21.785-52.843,19.782-53.948z"/>
	</g>
</g>
</svg>
