<?xml version="1.0" encoding="utf-8"?>
<!-- Generator: Adobe Illustrator 16.0.0, SVG Export Plug-In . SVG Version: 6.00 Build 0)  -->
<!DOCTYPE svg PUBLIC "-//W3C//DTD SVG 1.1//EN" "http://www.w3.org/Graphics/SVG/1.1/DTD/svg11.dtd">
<svg version="1.1" id="Capa_1" xmlns="http://www.w3.org/2000/svg" xmlns:xlink="http://www.w3.org/1999/xlink" x="0px" y="0px"
	 width="60px" height="95px" viewBox="0 0 6310 3353" enable-background="new 0 0 6310 3353" xml:space="preserve">
<g>
	<path fill="#0096E6" d="M3924.901,336.803L3924.901,336.803c-449.049-449.049-1177.156-449.049-1626.269,0l0,0
		c-404.637,404.638-450.124,1166.527-106.789,1624.37l919.924,1328.548l919.924-1328.548
		C4375.089,1503.33,4329.539,741.44,3924.901,336.803z M3122.965,1518.324c-209.657,0-379.585-169.928-379.585-379.585
		s169.928-379.585,379.585-379.585c209.658,0,379.585,169.928,379.585,379.585S3332.623,1518.324,3122.965,1518.324z"/>
	<g>
		<circle fill="#76C9B0" cx="3111.78" cy="1098.739" r="695.906"/>
		<path fill="#FFFFFF" d="M3491.365,1035.474h-316.32v-316.32c0-34.922-28.28-63.265-63.265-63.265
			c-34.984,0-63.264,28.343-63.264,63.265v379.585c0,34.921,28.279,63.264,63.264,63.264h379.585
			c34.984,0,63.264-28.343,63.264-63.264C3554.629,1063.817,3526.287,1035.474,3491.365,1035.474z"/>
	</g>
</g>
</svg>