<?xml version="1.0" encoding="utf-8"?>
<!-- Generator: Adobe Illustrator 16.0.0, SVG Export Plug-In . SVG Version: 6.00 Build 0)  -->
<!DOCTYPE svg PUBLIC "-//W3C//DTD SVG 1.1//EN" "http://www.w3.org/Graphics/SVG/1.1/DTD/svg11.dtd">
<svg version="1.1" id="Capa_1" xmlns="http://www.w3.org/2000/svg" xmlns:xlink="http://www.w3.org/1999/xlink" x="0px" y="0px"
	 width="40.297px" height="57.641px" viewBox="0 -84 40.297 57.641" enable-background="new 0 -84 40.297 57.641"
	 xml:space="preserve">
<g>
	<path fill="#0096E6" d="M34.393-78.099L34.393-78.099c-7.867-7.868-20.623-7.868-28.493,0l0,0
		c-7.09,7.091-7.885,20.44-1.871,28.462l16.118,23.278l16.116-23.278C42.285-57.659,41.488-71.008,34.393-78.099z M20.344-57.396
		c-3.673,0-6.648-2.979-6.648-6.65c0-3.675,2.978-6.65,6.648-6.65c3.675,0,6.65,2.979,6.65,6.65
		C26.998-60.375,24.018-57.396,20.344-57.396z"/>
	<g>
		<circle fill="#76C9B0" cx="20.152" cy="-63.773" r="16.164"/>
		<path fill="#FFFFFF" d="M28.967-65.241h-7.346v-7.349c0-0.811-0.659-1.468-1.473-1.468c-0.814,0-1.473,0.658-1.473,1.468v8.817
			c0,0.811,0.659,1.468,1.473,1.468h8.812c0.817,0,1.474-0.657,1.474-1.468C30.435-64.583,29.778-65.241,28.967-65.241z"/>
	</g>
</g>
</svg>
