<?xml version="1.0" encoding="utf-8"?>
<!-- Generator: Adobe Illustrator 16.0.0, SVG Export Plug-In . SVG Version: 6.00 Build 0)  -->
<!DOCTYPE svg PUBLIC "-//W3C//DTD SVG 1.1//EN" "http://www.w3.org/Graphics/SVG/1.1/DTD/svg11.dtd">
<svg version="1.1" id="Capa_1" xmlns="http://www.w3.org/2000/svg" xmlns:xlink="http://www.w3.org/1999/xlink" x="0px" y="0px"
	 width="29.646px" height="42.404px" viewBox="0 -83.998 29.646 42.404" enable-background="new 0 -83.998 29.646 42.404"
	 xml:space="preserve">
<g>
	<path fill="#279A80" d="M25.303-79.658L25.303-79.658c-5.788-5.786-15.172-5.786-20.962,0l0,0
		C-0.875-74.44-1.46-64.621,2.964-58.719l11.857,17.125L26.68-58.719C31.109-64.621,30.521-74.442,25.303-79.658z M14.966-64.427
		c-2.702,0-4.891-2.192-4.891-4.891c0-2.705,2.19-4.893,4.891-4.893c2.705,0,4.894,2.191,4.894,4.893
		C19.863-66.619,17.67-64.427,14.966-64.427z"/>
	<g>
		<circle fill="#E27B0C" cx="14.825" cy="-69.119" r="11.892"/>
		<path fill="#FFFFFF" d="M21.311-70.199h-5.403v-5.405c0-0.598-0.486-1.081-1.084-1.081c-0.599,0-1.084,0.483-1.084,1.081v6.484
			c0,0.598,0.484,1.08,1.084,1.08h6.482c0.603,0,1.086-0.481,1.086-1.08C22.392-69.715,21.906-70.199,21.311-70.199z"/>
	</g>
</g>
</svg>
