
		<!--?xml version="1.0" standalone="no"?-->

<svg version="1.0" xmlns="http://www.w3.org/2000/svg" width="300" height="300" viewBox="0 0 200.000000 300.000000" preserveAspectRatio="xMidYMid " class="svg" style="width: 310px; height: 300px;">
<g transform="translate(0.000000,300.000000) scale(0.100000,-0.100000)" fill="#040404" stroke="none">
<path class="node" id="node1" d="M816 2955 c-172 -61 -215 -284 -78 -407 89 -81 233 -78 320 5 52 50
73 100 74 173 1 170 -158 285 -316 229z" style="fill: rgb(255, 255, 255);"></path>
<path class="node" id="node2" d="M884 2385 c-93 -46 -123 -89 -264 -373 -71 -144 -136 -265 -142 -267
-7 -3 -96 -20 -196 -39 -101 -19 -195 -42 -209 -51 -54 -36 -68 -125 -28 -174
49 -57 67 -57 327 -5 128 25 245 53 261 61 20 10 43 46 88 136 66 132 67 133
74 125 5 -5 63 -274 72 -333 4 -28 -11 -48 -191 -240 -151 -160 -199 -218
-207 -247 -6 -24 -9 -187 -7 -442 3 -392 4 -405 24 -433 70 -94 194 -95 249
-2 19 32 20 55 23 379 l3 345 179 185 c98 102 181 182 185 179 3 -4 22 -101
40 -215 19 -115 42 -224 50 -242 18 -40 506 -616 541 -638 61 -40 153 -22 196
39 30 42 35 114 10 152 -11 17 -79 100 -152 185 -73 85 -155 182 -183 215 -28
33 -57 68 -65 78 -9 9 -28 89 -43 180 -16 89 -44 254 -63 367 -20 113 -59 309
-87 437 -29 128 -50 235 -47 238 3 3 31 -9 61 -27 l56 -33 113 -214 c119 -228
138 -251 206 -251 66 0 122 55 122 120 0 19 -20 69 -49 123 -26 51 -83 158
-124 238 -42 80 -85 153 -94 161 -19 17 -345 203 -471 270 -64 33 -82 38 -141
38 -51 0 -79 -6 -117 -25z" style="fill: rgb(255, 255, 255);"></path>
</g>
<g transform="translate(0.000000,300.000000) scale(0.100000,-0.100000)" fill="#A6A6A6" stroke="none">

</g>
</svg>	